<svg version="1.1" id="Layer_1" xmlns="http://www.w3.org/2000/svg" xmlns:xlink="http://www.w3.org/1999/xlink" x="0px" y="0px"
	 width="100%" viewBox="0 0 150 149" enable-background="new 0 0 150 149" xml:space="preserve">
<path fill="#FEFEFE" opacity="1.000000" stroke="none" 
	d="
M1.000000,58.000000 
	C1.000000,38.682423 1.000000,19.864845 1.000000,1.023634 
	C50.942406,1.023634 100.884819,1.023634 150.913620,1.023634 
	C150.913620,50.567398 150.913620,100.134995 150.913620,149.851288 
	C101.000328,149.851288 51.000221,149.851288 1.000000,149.851288 
	C1.000000,119.448883 1.000000,88.974442 1.000000,58.000000 
M88.815254,12.222376 
	C80.209793,12.237998 71.604332,12.253620 62.145309,12.232203 
	C61.740536,12.564377 61.335766,12.896549 60.287781,12.876191 
	C56.032318,14.206140 51.776855,15.536089 47.038902,17.384966 
	C39.205673,19.701431 33.408916,24.894690 27.605179,30.383810 
	C19.258278,38.278225 12.599688,47.129364 9.651059,58.311138 
	C8.413389,63.004627 8.138718,67.952400 7.431289,72.785309 
	C4.634243,91.893753 10.230308,108.313629 23.527031,123.005829 
	C43.939598,145.899887 76.136536,153.570038 103.588455,141.999069 
	C127.867020,131.765671 145.216095,109.668297 145.770950,84.412102 
	C116.247513,84.412102 86.729874,84.412102 57.257504,84.412102 
	C57.257504,88.358719 57.257504,91.935738 57.257504,96.079628 
	C81.627762,96.079628 105.658897,96.079628 130.039291,96.079628 
	C129.798355,97.327171 129.792374,97.996765 129.542786,98.558037 
	C120.810570,118.195007 105.984589,130.927292 84.771027,134.009811 
	C65.207588,136.852554 48.155159,129.659409 33.616863,115.418419 
	C30.197783,110.415047 26.401451,105.619888 23.486328,100.338356 
	C21.386793,96.534485 19.478731,92.144814 19.209909,87.907028 
	C18.581610,78.002319 18.684206,67.914497 23.150549,58.694218 
	C25.729826,53.369579 28.447020,47.830486 32.324566,43.476601 
	C39.610195,35.295975 48.708164,29.302099 59.757175,25.374334 
	C60.172943,25.253637 60.588711,25.132940 61.722099,25.086489 
	C62.858234,24.748327 63.994366,24.410166 65.577850,24.152884 
	C65.577850,24.152884 65.986465,23.953661 66.514870,24.075094 
	C66.681976,24.006271 66.849091,23.937450 67.869003,23.986385 
	C76.916573,24.638165 85.964134,25.289946 95.560356,26.386745 
	C104.731102,29.922966 113.154709,34.615463 119.102036,42.712151 
	C122.310234,47.079800 126.185806,49.362297 131.650970,48.286610 
	C133.019455,48.017254 135.214386,47.795616 135.481369,47.019478 
	C135.920944,45.741703 135.587463,43.629616 134.722015,42.569786 
	C131.002319,38.014660 126.310730,34.130802 123.212662,29.220398 
	C119.028519,22.588575 112.769371,19.575703 105.655251,16.229851 
	C100.443016,15.191569 95.230782,14.153288 89.593025,12.983698 
	C89.593025,12.983698 89.149612,12.942615 88.815254,12.222376 
z"/>
<path fill="#FD6708" opacity="1.000000" stroke="none" 
	d="
M33.887978,116.024536 
	C48.155159,129.659409 65.207588,136.852554 84.771027,134.009811 
	C105.984589,130.927292 120.810570,118.195007 129.542786,98.558037 
	C129.792374,97.996765 129.798355,97.327171 130.039291,96.079628 
	C105.658897,96.079628 81.627762,96.079628 57.257504,96.079628 
	C57.257504,91.935738 57.257504,88.358719 57.257504,84.412102 
	C86.729874,84.412102 116.247513,84.412102 145.770950,84.412102 
	C145.216095,109.668297 127.867020,131.765671 103.588455,141.999069 
	C76.136536,153.570038 43.939598,145.899887 23.763721,122.475723 
	C27.296267,119.971931 30.592121,117.998230 33.887978,116.024536 
z"/>
<path fill="#1E2B39" opacity="1.000000" stroke="none" 
	d="
M33.752419,115.721481 
	C30.592121,117.998230 27.296267,119.971931 23.654575,122.140564 
	C10.230308,108.313629 4.634243,91.893753 7.431289,72.785309 
	C8.138718,67.952400 8.413389,63.004627 9.651059,58.311138 
	C12.599688,47.129364 19.258278,38.278225 27.605179,30.383810 
	C33.408916,24.894690 39.205673,19.701431 47.715897,17.159245 
	C52.572258,15.698589 56.751629,14.463656 60.930996,13.228724 
	C61.335766,12.896549 61.740536,12.564377 62.659851,12.561098 
	C71.832802,12.907533 80.491211,12.925074 89.149612,12.942615 
	C89.149612,12.942615 89.593025,12.983698 90.070526,13.306163 
	C95.732117,14.674182 100.916214,15.719736 106.100304,16.765289 
	C112.769371,19.575703 119.028519,22.588575 123.212662,29.220398 
	C126.310730,34.130802 131.002319,38.014660 134.722015,42.569786 
	C135.587463,43.629616 135.920944,45.741703 135.481369,47.019478 
	C135.214386,47.795616 133.019455,48.017254 131.650970,48.286610 
	C126.185806,49.362297 122.310234,47.079800 119.102036,42.712151 
	C113.154709,34.615463 104.731102,29.922966 95.201820,25.800470 
	C86.278908,20.735344 77.084366,21.978949 68.002052,22.336395 
	C67.653870,22.350100 67.343948,23.335840 67.016205,23.868629 
	C66.849091,23.937450 66.681976,24.006271 66.136345,23.810461 
	C65.377045,23.496206 64.996277,23.446585 64.615501,23.396961 
	C64.787170,23.621975 64.958839,23.846989 65.130501,24.072002 
	C63.994366,24.410166 62.858234,24.748327 61.195206,24.804564 
	C60.147442,24.847473 59.626568,25.172306 59.105694,25.497141 
	C48.708164,29.302099 39.610195,35.295975 32.324566,43.476601 
	C28.447020,47.830486 25.729826,53.369579 23.150549,58.694218 
	C18.684206,67.914497 18.581610,78.002319 19.209909,87.907028 
	C19.478731,92.144814 21.386793,96.534485 23.486328,100.338356 
	C26.401451,105.619888 30.197783,110.415047 33.752419,115.721481 
z"/>
<path fill="#222B35" opacity="1.000000" stroke="none" 
	d="
M88.982437,12.582495 
	C80.491211,12.925074 71.832802,12.907533 63.086632,12.579617 
	C71.604332,12.253620 80.209793,12.237998 88.982437,12.582495 
z"/>
<path fill="#0B1520" opacity="1.000000" stroke="none" 
	d="
M67.442604,23.927507 
	C67.343948,23.335840 67.653870,22.350100 68.002052,22.336395 
	C77.084366,21.978949 86.278908,20.735344 94.927490,25.577961 
	C85.964134,25.289946 76.916573,24.638165 67.442604,23.927507 
z"/>
<path fill="#222B35" opacity="1.000000" stroke="none" 
	d="
M105.877777,16.497570 
	C100.916214,15.719736 95.732117,14.674182 90.283287,13.371817 
	C95.230782,14.153288 100.443016,15.191569 105.877777,16.497570 
z"/>
<path fill="#222B35" opacity="1.000000" stroke="none" 
	d="
M60.609390,13.052458 
	C56.751629,14.463656 52.572258,15.698589 47.957142,16.899780 
	C51.776855,15.536089 56.032318,14.206140 60.609390,13.052458 
z"/>
<path fill="#0B1520" opacity="1.000000" stroke="none" 
	d="
M65.354172,24.112442 
	C64.958839,23.846989 64.787170,23.621975 64.615501,23.396961 
	C64.996277,23.446585 65.377045,23.496206 65.872147,23.749744 
	C65.986465,23.953661 65.577850,24.152884 65.354172,24.112442 
z"/>
<path fill="#0B1520" opacity="1.000000" stroke="none" 
	d="
M59.431435,25.435738 
	C59.626568,25.172306 60.147442,24.847473 60.836395,24.767441 
	C60.588711,25.132940 60.172943,25.253637 59.431435,25.435738 
z"/>
</svg>